<svg width="22" height="20" viewBox="0 0 22 20" fill="none" xmlns="http://www.w3.org/2000/svg">
<path d="M11.0001 0.666748C5.1093 0.666748 0.333471 4.54675 0.333471 9.33342C0.333471 11.3147 1.16097 13.1347 2.53764 14.5947C1.9168 16.2384 0.623888 17.6276 0.605971 17.6459C0.332638 17.9355 0.256804 18.3622 0.414721 18.7284C0.572638 19.0947 0.933054 19.3334 1.33264 19.3334C3.89555 19.3334 5.91681 18.2617 7.13056 17.403C8.33139 17.7834 9.63347 18.0001 11.0001 18.0001C16.891 18.0001 21.6668 14.1201 21.6668 9.33342C21.6668 4.54675 16.891 0.666748 11.0001 0.666748ZM11.0001 16.6667C9.81972 16.6667 8.65347 16.4867 7.53305 16.1317L6.90139 15.9317L6.36014 16.3147C5.40097 16.9934 3.92139 17.7872 2.0843 17.9642C2.58389 17.3355 3.3268 16.2792 3.78472 15.0663L4.0793 14.2867L3.50764 13.6805C2.30347 12.403 1.6668 10.9001 1.6668 9.33342C1.6668 5.28966 5.85389 2.00008 11.0001 2.00008C16.1464 2.00008 20.3335 5.28966 20.3335 9.33342C20.3335 13.3772 16.1464 16.6667 11.0001 16.6667ZM12.4143 9.04383L9.95347 8.34133C9.58889 8.23633 9.33347 7.89925 9.33347 7.5205C9.33347 7.04966 9.71639 6.66716 10.1864 6.66716H11.7243C12.0676 6.66716 12.3943 6.77383 12.6672 6.97217C12.7918 7.06258 12.9681 7.033 13.0772 6.92383L13.5531 6.448C13.6989 6.30217 13.6756 6.06383 13.5118 5.93842C13.001 5.54633 12.3793 5.33383 11.7243 5.33383H11.6668V4.33383C11.6668 4.14966 11.5176 4.0005 11.3335 4.0005H10.6668C10.4826 4.0005 10.3335 4.14966 10.3335 4.33383V5.33383H10.1864C8.91181 5.33383 7.8893 6.42967 8.00972 7.72883C8.09555 8.65216 8.80389 9.4005 9.69514 9.65466L12.0468 10.3259C12.4114 10.4309 12.6668 10.768 12.6668 11.1467C12.6668 11.6176 12.2839 12.0001 11.8139 12.0001H10.276C9.93264 12.0001 9.60597 11.8934 9.33306 11.6951C9.20847 11.6047 9.03222 11.6342 8.92305 11.7434L8.44722 12.2192C8.30139 12.3651 8.32472 12.603 8.48847 12.7288C8.9993 13.1209 9.62097 13.3334 10.276 13.3334H10.3335V14.3334C10.3335 14.5176 10.4826 14.6667 10.6668 14.6667H11.3335C11.5176 14.6667 11.6668 14.5176 11.6668 14.3334V13.3334H11.7235C12.6739 13.3334 13.5706 12.7672 13.8785 11.868C14.3014 10.6326 13.5751 9.37633 12.4143 9.04383Z" fill="#464646"/>
</svg>
