<svg width="22" height="22" viewBox="0 0 22 22" fill="none" xmlns="http://www.w3.org/2000/svg">
<path d="M20.9412 7.18837C20.8587 7.12046 20.0166 6.44212 19 5.62462V4.33337C19 3.59712 18.4029 3.00004 17.6666 3.00004H15.7304C15.5583 2.86212 15.4091 2.74337 15.3054 2.66087C14.3846 1.92462 12.81 0.333374 11 0.333374C9.19956 0.333374 7.63998 1.90504 6.69415 2.66087C6.58873 2.74462 6.43998 2.86379 6.26915 3.00004H4.33331C3.59706 3.00004 2.99998 3.59712 2.99998 4.33337V5.62421C1.97831 6.44546 1.1354 7.12462 1.06331 7.18379C0.835126 7.37137 0.65132 7.60716 0.525101 7.87422C0.398882 8.14128 0.333384 8.43299 0.333313 8.72837L0.333313 19.6667C0.333313 20.7713 1.22873 21.6667 2.33331 21.6667H19.6666C20.7712 21.6667 21.6666 20.7713 21.6666 19.6667V8.72962C21.6666 8.13337 21.4008 7.56796 20.9412 7.18837ZM11 1.66671C11.9071 1.66671 12.86 2.36337 13.6308 3.00004H8.37081C9.1429 2.36379 10.0966 1.66671 11 1.66671ZM4.33331 4.33337H17.6666V11.5563C16.3196 12.6396 14.9458 13.7413 14.0587 14.4455C13.3566 15.005 11.9675 16.3488 11 16.3334C10.0329 16.3492 8.64331 15.005 7.94123 14.445C7.05415 13.7409 5.68123 12.6396 4.33331 11.5559V4.33337ZM1.66665 8.72837C1.66665 8.52837 1.7554 8.34046 1.90998 8.21337C1.96165 8.17087 2.39415 7.82254 2.99998 7.33504V10.483C2.51956 10.0963 2.06206 9.72754 1.66665 9.40879V8.72837ZM20.3333 19.6667C20.3333 20.0342 20.0341 20.3334 19.6666 20.3334H2.33331C1.96581 20.3334 1.66665 20.0342 1.66665 19.6667V11.1213C3.4479 12.5563 5.80456 14.4513 7.11165 15.4888C7.9654 16.1705 9.47581 17.6775 11 17.6663C12.5187 17.6771 14.0112 16.1888 14.8879 15.4888C16.1966 14.45 18.5516 12.5559 20.3333 11.1209V19.6667ZM20.3333 9.40879C19.9325 9.73171 19.4887 10.0896 19 10.4834V7.33587C19.6016 7.82004 20.0333 8.16796 20.0916 8.21587C20.2454 8.34296 20.3333 8.53004 20.3333 8.72962V9.40879ZM9.87123 10.3575L11.7462 10.92C11.9612 10.9846 12.1116 11.2025 12.1116 11.4505C12.1116 11.7534 11.8908 12 11.62 12H10.4487C10.2587 12 10.0754 11.9463 9.91456 11.845C9.77956 11.7605 9.6079 11.7655 9.49248 11.8755L9.0029 12.3425C8.85581 12.483 8.86415 12.7263 9.02665 12.8484C9.40581 13.133 9.86331 13.2971 10.3337 13.3213V14C10.3337 14.1842 10.4829 14.3334 10.6671 14.3334H11.3337C11.5179 14.3334 11.6671 14.1842 11.6671 14V13.3284C12.6512 13.3021 13.445 12.4725 13.445 11.4505C13.445 10.6184 12.9041 9.87504 12.1291 9.64254L10.2541 9.08004C10.0391 9.01546 9.88873 8.79754 9.88873 8.54962C9.88873 8.24671 10.1096 8.00004 10.3804 8.00004H11.5516C11.7416 8.00004 11.925 8.05379 12.0858 8.15504C12.2208 8.23962 12.3925 8.23462 12.5079 8.12462L12.9975 7.65754C13.1446 7.51712 13.1362 7.27379 12.9737 7.15171C12.5946 6.86712 12.1371 6.70296 11.6666 6.67879V6.00004C11.6666 5.81587 11.5175 5.66671 11.3333 5.66671H10.6666C10.4825 5.66671 10.3333 5.81587 10.3333 6.00004V6.67171C9.34915 6.69796 8.5554 7.52796 8.5554 8.54962C8.5554 9.38171 9.09623 10.125 9.87123 10.3575Z" fill="#1AAAB2"/>
</svg>
