<svg width="33" height="32" viewBox="0 0 33 32" fill="none" xmlns="http://www.w3.org/2000/svg">
<path d="M16.5001 17.3333C17.2073 17.3333 17.8856 17.0524 18.3857 16.5523C18.8858 16.0522 19.1668 15.3739 19.1668 14.6667C19.1668 13.9594 18.8858 13.2811 18.3857 12.781C17.8856 12.281 17.2073 12 16.5001 12C16.4584 12 16.4218 12.01 16.3813 12.0121C16.5099 12.366 16.5347 12.7492 16.4531 13.1167C16.3715 13.4842 16.1867 13.8209 15.9205 14.0871C15.6543 14.3533 15.3177 14.5381 14.9501 14.6197C14.5826 14.7013 14.1994 14.6764 13.8455 14.5479C13.8455 14.5896 13.8334 14.6263 13.8334 14.6667C13.8334 15.0169 13.9024 15.3636 14.0364 15.6872C14.1704 16.0107 14.3669 16.3047 14.6145 16.5523C15.1146 17.0524 15.7929 17.3333 16.5001 17.3333ZM28.3551 15.3917C26.0955 10.9829 21.6222 8 16.5001 8C11.378 8 6.90343 10.985 4.6451 15.3921C4.54978 15.5806 4.50012 15.7889 4.50012 16.0002C4.50012 16.2115 4.54978 16.4198 4.6451 16.6083C6.90468 21.0171 11.378 24 16.5001 24C21.6222 24 26.0968 21.015 28.3551 16.6079C28.4504 16.4194 28.5001 16.2111 28.5001 15.9998C28.5001 15.7885 28.4504 15.5802 28.3551 15.3917ZM16.5001 9.33333C17.5549 9.33333 18.5861 9.64613 19.4631 10.2322C20.3402 10.8182 21.0238 11.6511 21.4275 12.6257C21.8311 13.6002 21.9367 14.6726 21.731 15.7071C21.5252 16.7417 21.0172 17.692 20.2713 18.4379C19.5255 19.1838 18.5751 19.6917 17.5406 19.8975C16.506 20.1033 15.4337 19.9977 14.4591 19.594C13.4846 19.1904 12.6516 18.5068 12.0656 17.6297C11.4796 16.7526 11.1668 15.7215 11.1668 14.6667C11.1683 13.2527 11.7307 11.897 12.7306 10.8971C13.7304 9.89728 15.0861 9.33488 16.5001 9.33333ZM16.5001 22.6667C12.0268 22.6667 7.93927 20.1121 5.83343 16C7.01778 13.675 8.9118 11.7875 11.2409 10.6112C10.3713 11.7371 9.83343 13.1321 9.83343 14.6667C9.83343 16.4348 10.5358 18.1305 11.7861 19.3807C13.0363 20.631 14.732 21.3333 16.5001 21.3333C18.2682 21.3333 19.9639 20.631 21.2141 19.3807C22.4644 18.1305 23.1668 16.4348 23.1668 14.6667C23.1668 13.1321 22.6288 11.7371 21.7593 10.6112C24.0884 11.7875 25.9824 13.675 27.1668 16C25.0613 20.1121 20.9734 22.6667 16.5001 22.6667Z" fill="#464646"/>
</svg>
