<svg width="32" height="32" viewBox="0 0 32 32" fill="none" xmlns="http://www.w3.org/2000/svg">
<path d="M16.0001 17.3333C16.7073 17.3333 17.3856 17.0524 17.8857 16.5523C18.3858 16.0522 18.6668 15.3739 18.6668 14.6667C18.6668 13.9594 18.3858 13.2811 17.8857 12.781C17.3856 12.281 16.7073 12 16.0001 12C15.9584 12 15.9218 12.01 15.8813 12.0121C16.0099 12.366 16.0347 12.7492 15.9531 13.1167C15.8715 13.4842 15.6867 13.8209 15.4205 14.0871C15.1543 14.3533 14.8177 14.5381 14.4501 14.6197C14.0826 14.7013 13.6994 14.6764 13.3455 14.5479C13.3455 14.5896 13.3334 14.6263 13.3334 14.6667C13.3334 15.0169 13.4024 15.3636 13.5364 15.6872C13.6704 16.0107 13.8669 16.3047 14.1145 16.5523C14.6146 17.0524 15.2929 17.3333 16.0001 17.3333ZM27.8551 15.3917C25.5955 10.9829 21.1222 8 16.0001 8C10.878 8 6.40343 10.985 4.1451 15.3921C4.04978 15.5806 4.00012 15.7889 4.00012 16.0002C4.00012 16.2115 4.04978 16.4198 4.1451 16.6083C6.40468 21.0171 10.878 24 16.0001 24C21.1222 24 25.5968 21.015 27.8551 16.6079C27.9504 16.4194 28.0001 16.2111 28.0001 15.9998C28.0001 15.7885 27.9504 15.5802 27.8551 15.3917ZM16.0001 9.33333C17.0549 9.33333 18.0861 9.64613 18.9631 10.2322C19.8402 10.8182 20.5238 11.6511 20.9275 12.6257C21.3311 13.6002 21.4367 14.6726 21.231 15.7071C21.0252 16.7417 20.5172 17.692 19.7713 18.4379C19.0255 19.1838 18.0751 19.6917 17.0406 19.8975C16.006 20.1033 14.9337 19.9977 13.9591 19.594C12.9846 19.1904 12.1516 18.5068 11.5656 17.6297C10.9796 16.7526 10.6668 15.7215 10.6668 14.6667C10.6683 13.2527 11.2307 11.897 12.2306 10.8971C13.2304 9.89728 14.5861 9.33488 16.0001 9.33333ZM16.0001 22.6667C11.5268 22.6667 7.43927 20.1121 5.33343 16C6.51778 13.675 8.4118 11.7875 10.7409 10.6112C9.87135 11.7371 9.33343 13.1321 9.33343 14.6667C9.33343 16.4348 10.0358 18.1305 11.2861 19.3807C12.5363 20.631 14.232 21.3333 16.0001 21.3333C17.7682 21.3333 19.4639 20.631 20.7141 19.3807C21.9644 18.1305 22.6668 16.4348 22.6668 14.6667C22.6668 13.1321 22.1288 11.7371 21.2593 10.6112C23.5884 11.7875 25.4824 13.675 26.6668 16C24.5613 20.1121 20.4734 22.6667 16.0001 22.6667Z" fill="#F6F6F6"/>
</svg>
