<svg width="16" height="22" viewBox="0 0 16 22" fill="none" xmlns="http://www.w3.org/2000/svg">
<path d="M9.12875 13.9759L7.25375 13.4134C7.03875 13.3488 6.88833 13.1309 6.88833 12.883C6.88833 12.58 7.10917 12.3334 7.38 12.3334H8.55125C8.74125 12.3334 8.92458 12.3871 9.08542 12.4884C9.22042 12.573 9.39208 12.568 9.5075 12.458L9.99708 11.9909C10.1442 11.8505 10.1358 11.6071 9.97333 11.485C9.59417 11.2005 9.13667 11.0363 8.66625 11.0121V10C8.66625 9.81587 8.51708 9.66671 8.33292 9.66671H7.66625C7.48208 9.66671 7.33292 9.81587 7.33292 10V11.005C6.34875 11.0313 5.555 11.8613 5.555 12.883C5.555 13.715 6.09583 14.4584 6.87083 14.6909L8.74583 15.2534C8.96083 15.318 9.11125 15.5359 9.11125 15.7838C9.11125 16.0867 8.89042 16.3334 8.61958 16.3334H7.44833C7.25833 16.3334 7.075 16.2796 6.91417 16.1784C6.77917 16.0938 6.6075 16.0988 6.49208 16.2088L6.0025 16.6759C5.85542 16.8163 5.86375 17.0596 6.02625 17.1817C6.40542 17.4663 6.86292 17.6305 7.33333 17.6546V18.6667C7.33333 18.8509 7.4825 19 7.66667 19H8.33333C8.5175 19 8.66667 18.8509 8.66667 18.6667V17.6617C9.65083 17.6355 10.4446 16.8059 10.4446 15.7838C10.4446 14.9517 9.90375 14.2084 9.12875 13.9759ZM3 4.33337H7.66667C7.85083 4.33337 8 4.18421 8 4.00004V3.33337C8 3.14921 7.85083 3.00004 7.66667 3.00004H3C2.81583 3.00004 2.66667 3.14921 2.66667 3.33337V4.00004C2.66667 4.18421 2.81583 4.33337 3 4.33337ZM8 6.66671V6.00004C8 5.81587 7.85083 5.66671 7.66667 5.66671H3C2.81583 5.66671 2.66667 5.81587 2.66667 6.00004V6.66671C2.66667 6.85087 2.81583 7.00004 3 7.00004H7.66667C7.85083 7.00004 8 6.85087 8 6.66671ZM15.4125 4.41587L11.9175 0.920874C11.5425 0.545874 11.0342 0.333374 10.5054 0.333374H1.99958C0.895833 0.337541 0 1.23337 0 2.33712V19.6671C0 20.7709 0.895833 21.6667 1.99958 21.6667H14.0004C15.1042 21.6667 16 20.7709 16 19.6671V5.83212C16 5.30337 15.7875 4.79087 15.4125 4.41587ZM10.6679 1.69129C10.7846 1.72046 10.8888 1.77879 10.9762 1.86629L14.4713 5.36129C14.5588 5.44879 14.6171 5.55296 14.6463 5.66962H10.6679V1.69129ZM14.6671 19.6671C14.6671 20.0338 14.3671 20.3338 14.0004 20.3338H1.99958C1.63292 20.3338 1.33292 20.0338 1.33292 19.6671V2.33712C1.33292 1.97046 1.63292 1.66671 1.99958 1.66671H9.33458V6.00296C9.33458 6.55712 9.78042 7.00004 10.3346 7.00004H14.6671V19.6671Z" fill="#464646"/>
</svg>
