<svg width="16" height="22" viewBox="0 0 16 22" fill="none" xmlns="http://www.w3.org/2000/svg">
<path d="M15.4125 4.41414L11.9167 0.91831C11.5417 0.543311 11.0333 0.330811 10.5042 0.330811H2C0.895833 0.334977 0 1.23081 0 2.33498V19.6683C0 20.7725 0.895833 21.6683 2 21.6683H14C15.1042 21.6683 16 20.7725 16 19.6683V5.83081C16 5.30164 15.7875 4.78914 15.4125 4.41414ZM14.4708 5.35998C14.5583 5.44748 14.6167 5.55164 14.6458 5.66831H10.6667V1.68914C10.7833 1.71831 10.8875 1.77664 10.975 1.86414L14.4708 5.35998ZM14 20.335H2C1.63333 20.335 1.33333 20.035 1.33333 19.6683V2.33498C1.33333 1.96831 1.63333 1.66831 2 1.66831H9.33333V6.00164C9.33333 6.55581 9.77917 7.00164 10.3333 7.00164H14.6667V19.6683C14.6667 20.035 14.3667 20.335 14 20.335ZM12 10.1683V10.5016C12 10.7766 11.775 11.0016 11.5 11.0016H4.5C4.225 11.0016 4 10.7766 4 10.5016V10.1683C4 9.89331 4.225 9.66831 4.5 9.66831H11.5C11.775 9.66831 12 9.89331 12 10.1683ZM12 12.835V13.1683C12 13.4433 11.775 13.6683 11.5 13.6683H4.5C4.225 13.6683 4 13.4433 4 13.1683V12.835C4 12.56 4.225 12.335 4.5 12.335H11.5C11.775 12.335 12 12.56 12 12.835ZM12 15.5016V15.835C12 16.11 11.775 16.335 11.5 16.335H4.5C4.225 16.335 4 16.11 4 15.835V15.5016C4 15.2266 4.225 15.0016 4.5 15.0016H11.5C11.775 15.0016 12 15.2266 12 15.5016Z" fill="#464646"/>
</svg>
