<svg width="16" height="22" viewBox="0 0 16 22" fill="none" xmlns="http://www.w3.org/2000/svg">
<path d="M5.66667 13.6666H5C4.81667 13.6666 4.66667 13.8166 4.66667 13.9999V17.9999C4.66667 18.1833 4.81667 18.3333 5 18.3333H5.66667C5.85 18.3333 6 18.1833 6 17.9999V13.9999C6 13.8166 5.85 13.6666 5.66667 13.6666ZM8.33333 9.66658H7.66667C7.48333 9.66658 7.33333 9.81658 7.33333 9.99992V17.9999C7.33333 18.1833 7.48333 18.3333 7.66667 18.3333H8.33333C8.51667 18.3333 8.66667 18.1833 8.66667 17.9999V9.99992C8.66667 9.81658 8.51667 9.66658 8.33333 9.66658ZM10 12.6666V17.9999C10 18.1833 10.15 18.3333 10.3333 18.3333H11C11.1833 18.3333 11.3333 18.1833 11.3333 17.9999V12.6666C11.3333 12.4833 11.1833 12.3333 11 12.3333H10.3333C10.15 12.3333 10 12.4833 10 12.6666ZM15.4125 4.41575L11.9175 0.920752C11.5425 0.545752 11.0342 0.333252 10.5054 0.333252H1.99958C0.895833 0.337419 0 1.23325 0 2.337V19.667C0 20.7708 0.895833 21.6666 1.99958 21.6666H14.0004C15.1042 21.6666 16 20.7708 16 19.667V5.832C16 5.30325 15.7875 4.79075 15.4125 4.41575ZM10.6679 1.69117C10.7846 1.72034 10.8888 1.77867 10.9762 1.86617L14.4713 5.36117C14.5588 5.44867 14.6171 5.55284 14.6463 5.6695H10.6679V1.69117ZM14.6671 19.667C14.6671 20.0337 14.3671 20.3337 14.0004 20.3337H1.99958C1.63292 20.3337 1.33292 20.0337 1.33292 19.667V2.337C1.33292 1.97034 1.63292 1.66659 1.99958 1.66659H9.33458V6.00284C9.33458 6.557 9.78042 6.99992 10.3346 6.99992H14.6671V19.667Z" fill="#464646"/>
</svg>
