<svg width="32" height="32" viewBox="0 0 32 32" fill="none" xmlns="http://www.w3.org/2000/svg">
<path d="M27.8954 14.4944L25.3338 12.4323V8.33151C25.3338 8.2431 25.2987 8.15832 25.2361 8.09581C25.1736 8.0333 25.0888 7.99818 25.0004 7.99818H24.3338C24.2454 7.99818 24.1606 8.0333 24.0981 8.09581C24.0356 8.15832 24.0004 8.2431 24.0004 8.33151V11.3565L16.9421 5.66484C16.6759 5.44875 16.3435 5.33081 16.0006 5.33081C15.6578 5.33081 15.3254 5.44875 15.0592 5.66484L4.10586 14.4944C4.07692 14.5175 4.05286 14.5462 4.03508 14.5786C4.0173 14.6111 4.00615 14.6468 4.00227 14.6836C3.99839 14.7205 4.00187 14.7577 4.0125 14.7932C4.02313 14.8286 4.0407 14.8616 4.06419 14.8903L4.65586 15.6194C4.67937 15.6484 4.70837 15.6726 4.74121 15.6904C4.77404 15.7082 4.81007 15.7193 4.84722 15.7232C4.88437 15.7271 4.92192 15.7236 4.95772 15.7129C4.99352 15.7023 5.02687 15.6846 5.05586 15.6611L6.66711 14.3615V25.9982C6.66711 26.175 6.73734 26.3446 6.86237 26.4696C6.98739 26.5946 7.15696 26.6648 7.33377 26.6648H24.6671C24.8439 26.6648 25.0135 26.5946 25.1385 26.4696C25.2635 26.3446 25.3338 26.175 25.3338 25.9982V14.3657L26.9504 15.6694C27.009 15.7169 27.0841 15.7392 27.1591 15.7313C27.2341 15.7235 27.3029 15.6863 27.3504 15.6278L27.9417 14.8986C27.9867 14.8379 28.007 14.7624 27.9984 14.6874C27.9899 14.6123 27.953 14.5433 27.8954 14.4944ZM18.0004 25.3315H14.0004V18.6648H18.0004V25.3315ZM24.0004 25.3315H19.3338V17.9982C19.3338 17.8214 19.2635 17.6518 19.1385 17.5268C19.0135 17.4017 18.8439 17.3315 18.6671 17.3315H13.3338C13.157 17.3315 12.9874 17.4017 12.8624 17.5268C12.7373 17.6518 12.6671 17.8214 12.6671 17.9982V25.3315H8.00044V13.2865L15.8217 6.97818C15.8711 6.93776 15.9329 6.91568 15.9967 6.91568C16.0605 6.91568 16.1223 6.93776 16.1717 6.97818L24.0004 13.2898V25.3315Z" fill="#F6F6F6"/>
</svg>
