<svg width="10" height="22" viewBox="0 0 10 22" fill="none" xmlns="http://www.w3.org/2000/svg">
<path d="M8.33333 15.6944V8.99992C8.33333 8.35429 8.02583 7.77913 7.54954 7.41321C8.43508 6.67892 9 5.57079 9 4.33325C9 2.12763 7.20563 0.333252 5 0.333252C2.79437 0.333252 1 2.12763 1 4.33325C1 5.35675 1.38642 6.29175 2.021 6.99992H2C0.897208 6.99992 0 7.89713 0 8.99992V10.9999C0 11.9892 0.721958 12.813 1.66667 12.9721V15.6943C0.721958 15.8535 0 16.6773 0 17.6666V19.6666C0 20.7694 0.897208 21.6666 2 21.6666H8C9.10279 21.6666 10 20.7694 10 19.6666V17.6666C10 16.6773 9.27804 15.8535 8.33333 15.6944ZM5 1.66659C6.47275 1.66659 7.66667 2.8605 7.66667 4.33325C7.66667 5.806 6.47275 6.99992 5 6.99992C3.52725 6.99992 2.33333 5.806 2.33333 4.33325C2.33333 2.8605 3.52725 1.66659 5 1.66659ZM8.66667 19.6666C8.66667 20.0348 8.36821 20.3333 8 20.3333H2C1.63179 20.3333 1.33333 20.0348 1.33333 19.6666V17.6666C1.33333 17.2984 1.63179 16.9999 2 16.9999H3V11.6666H2C1.63179 11.6666 1.33333 11.3681 1.33333 10.9999V8.99992C1.33333 8.63171 1.63179 8.33325 2 8.33325H6.33333C6.70154 8.33325 7 8.63171 7 8.99992V16.9999H8C8.36821 16.9999 8.66667 17.2984 8.66667 17.6666V19.6666Z" fill="#464646"/>
</svg>
