<svg width="32" height="32" viewBox="0 0 32 32" fill="none" xmlns="http://www.w3.org/2000/svg">
<path d="M7.58438 18.9882C7.00529 18.1352 6.66659 17.1065 6.66659 16.0002C6.66659 13.0594 9.05913 10.6668 11.9999 10.6668H18.6666V13.3322C18.6666 14.5505 20.1746 15.1312 20.991 14.2242L23.991 10.8922C24.4473 10.3851 24.4473 9.61533 23.991 9.10824L20.991 5.77599C20.176 4.87041 18.6666 5.44758 18.6666 6.66791V9.33349H11.9999C8.32388 9.33349 5.33325 12.3241 5.33325 16.0002C5.33325 17.4132 5.77542 18.7248 6.52838 19.8043C6.71284 20.0688 7.09529 20.0933 7.31109 19.8537L7.53975 19.5997C7.69254 19.4299 7.71263 19.1772 7.58438 18.9882ZM19.9999 6.66683L22.9999 10.0002L19.9999 13.3335V6.66683ZM25.4715 12.196C25.287 11.9315 24.9045 11.907 24.6888 12.1467L24.4601 12.4007C24.3073 12.5704 24.2872 12.8232 24.4155 13.0121C24.9945 13.8651 25.3333 14.8938 25.3333 16.0002C25.3333 18.9409 22.9407 21.3335 19.9999 21.3335H13.3333V18.6681C13.3333 17.4498 11.8253 16.8691 11.0089 17.7762L8.00888 21.1082C7.55254 21.6152 7.5525 22.385 8.00888 22.8921L11.0089 26.2244C11.8238 27.1299 13.3333 26.5528 13.3333 25.3324V22.6668H19.9999C23.676 22.6668 26.6666 19.6762 26.6666 16.0002C26.6666 14.5871 26.2244 13.2755 25.4715 12.196ZM11.9999 25.3335L8.99992 22.0002L11.9999 18.6668V25.3335Z" fill="#F6F6F6"/>
</svg>
