<svg width="22" height="22" viewBox="0 0 22 22" fill="none" xmlns="http://www.w3.org/2000/svg">
<path d="M14.2875 5.40129L16.1092 2.40587C16.6992 1.51962 16.0642 0.333374 15.0004 0.333374H7.00668C5.94168 0.333374 5.30668 1.52087 5.89793 2.40671L7.71335 5.40171C-0.052482 10.358 0.337102 16.6817 0.337102 17.5C0.337102 19.8013 2.38335 21.6667 4.9071 21.6667H17.0946C19.6188 21.6667 21.6646 19.8013 21.6646 17.5C21.6646 16.6967 22.0096 10.3334 14.2875 5.40129ZM7.00668 1.66671H15.0004L12.9534 5.00004H9.04794L7.00668 1.66671ZM20.3338 17.5C20.3338 19.0621 18.8817 20.3334 17.0967 20.3334H4.9071C3.1221 20.3334 1.67002 19.0621 1.67002 17.5V17.36C1.63127 14.8659 2.50335 10.1517 8.70794 6.33337H13.2954C19.4854 10.1442 20.3654 14.8725 20.3338 17.375V17.5ZM12.2342 13.2809L10.1925 12.675C9.95669 12.6075 9.79377 12.3742 9.79377 12.105C9.79377 11.7775 10.0338 11.513 10.3288 11.513H11.6025C11.8076 11.5141 12.0085 11.5718 12.1829 11.6796C12.2518 11.7265 12.3344 11.749 12.4175 11.7433C12.5006 11.7376 12.5794 11.7042 12.6413 11.6484L13.1717 11.1413C13.2093 11.106 13.2388 11.0629 13.258 11.015C13.2773 10.9672 13.286 10.9157 13.2834 10.8642C13.2808 10.8127 13.2671 10.7623 13.2431 10.7166C13.2192 10.6709 13.1855 10.631 13.1446 10.5996C12.7299 10.2949 12.2348 10.1186 11.7209 10.0925V9.35921C11.7202 9.26358 11.6817 9.1721 11.6137 9.10479C11.5458 9.03748 11.454 8.99982 11.3584 9.00004H10.6338C10.5381 8.99982 10.4462 9.03747 10.3782 9.10476C10.3102 9.17206 10.2716 9.26354 10.2709 9.35921V10.0859C9.19627 10.1171 8.33502 11.0105 8.33502 12.1096C8.33502 13.0071 8.92419 13.8059 9.76752 14.0571L11.8092 14.663C12.045 14.73 12.2084 14.9634 12.2084 15.2325C12.2084 15.5605 11.9679 15.825 11.6734 15.825H10.3979C10.1928 15.824 9.99194 15.7663 9.81752 15.6584C9.74863 15.6115 9.66599 15.5892 9.58287 15.5949C9.49975 15.6006 9.42098 15.6342 9.35919 15.69L8.82419 16.1925C8.78665 16.2279 8.75724 16.271 8.73799 16.3188C8.71874 16.3667 8.7101 16.4181 8.71267 16.4696C8.71525 16.5211 8.72898 16.5715 8.7529 16.6171C8.77683 16.6628 8.81039 16.7028 8.85127 16.7342C9.26611 17.0387 9.76108 17.215 10.275 17.2413V17.9725C10.2758 18.0682 10.3144 18.1597 10.3824 18.227C10.4504 18.2943 10.5423 18.3319 10.6379 18.3317H11.3634C11.459 18.3318 11.5507 18.2941 11.6186 18.2268C11.6865 18.1595 11.7251 18.0681 11.7259 17.9725V17.25C12.7959 17.2234 13.6617 16.3259 13.6663 15.2267C13.6671 14.3309 13.0775 13.5321 12.2342 13.2809Z" fill="#464646"/>
</svg>
