<svg width="28" height="22" viewBox="0 0 28 22" fill="none" xmlns="http://www.w3.org/2000/svg">
<path d="M26 0.333252H8.66669C7.93044 0.333252 7.33335 0.930335 7.33335 1.66659V5.66658C5.12419 5.66658 3.33335 7.45742 3.33335 9.66658C3.33335 11.8758 5.12419 13.6666 7.33335 13.6666C9.54252 13.6666 11.3334 11.8758 11.3334 9.66658C11.3334 7.92742 10.2167 6.46242 8.66669 5.91159V1.66659H26V16.3333H13.3892C13.3646 16.2941 13.3463 16.2516 13.3204 16.2133C12.6017 15.1458 11.3759 14.5837 10.1163 14.5837C8.95835 14.5841 8.66752 14.9999 7.33335 14.9999C6.00127 14.9999 5.71044 14.5841 4.55044 14.5841C3.29085 14.5841 2.06502 15.1458 1.34627 16.2137C0.917104 16.8508 0.666687 17.6183 0.666687 18.4445V19.9999C0.666687 20.9203 1.41294 21.6666 2.33335 21.6666H12.3334C13.2538 21.6666 14 20.9203 14 19.9999V18.4445C14 18.1774 13.965 17.9195 13.915 17.6666H26C26.7363 17.6666 27.3334 17.0695 27.3334 16.3333V1.66659C27.3334 0.930335 26.7363 0.333252 26 0.333252ZM10 9.66658C10 11.137 8.80377 12.3333 7.33335 12.3333C5.86294 12.3333 4.66669 11.137 4.66669 9.66658C4.66669 8.19617 5.86294 6.99992 7.33335 6.99992C8.80377 6.99992 10 8.19617 10 9.66658ZM12.6667 19.9999C12.6667 20.1837 12.5171 20.3333 12.3334 20.3333H2.33335C2.1496 20.3333 2.00002 20.1837 2.00002 19.9999V18.4445C2.00002 17.9116 2.15627 17.3974 2.4521 16.9583C2.89085 16.3066 3.67502 15.9174 4.55044 15.9174C5.45877 15.9174 5.80002 16.3333 7.33335 16.3333C8.86627 16.3333 9.20877 15.9174 10.1163 15.9174C10.9913 15.9174 11.7759 16.3066 12.2146 16.9583C12.5104 17.3974 12.6667 17.9116 12.6667 18.4445V19.9999ZM14.7759 6.69533C14.385 6.3045 13.7525 6.3045 13.3617 6.69533L12.2996 7.75742C12.4896 8.24575 12.6038 8.7645 12.6417 9.30075L14.0688 7.87367L16.6954 10.4999C16.8909 10.6953 17.1459 10.7924 17.4025 10.7924C17.6592 10.7924 17.9142 10.6953 18.1096 10.4999L20.5667 8.04283L21.9517 9.42783C22.1167 9.59283 22.3192 9.66658 22.5184 9.66658C22.9346 9.66658 23.3338 9.34325 23.3338 8.85533V4.87283C23.3338 4.57492 23.0921 4.33325 22.7942 4.33325H18.8117C18.0904 4.33325 17.7292 5.20534 18.2392 5.71533L19.6242 7.10034L17.4029 9.32158L14.7759 6.69533ZM22 5.66658V7.59075L20.0759 5.66658H22Z" fill="#464646"/>
</svg>
